<!DOCTYPE svg PUBLIC "-//W3C//DTD SVG 1.1//EN" "http://www.w3.org/Graphics/SVG/1.1/DTD/svg11.dtd">
<!-- Uploaded to: SVG Repo, www.svgrepo.com, Transformed by: SVG Repo Mixer Tools -->
<svg width="800px" height="800px" viewBox="0 0 1024 1024" xmlns="http://www.w3.org/2000/svg" fill="#ffffff">
<g id="SVGRepo_bgCarrier" stroke-width="0"/>
<g id="SVGRepo_tracerCarrier" stroke-linecap="round" stroke-linejoin="round"/>
<g id="SVGRepo_iconCarrier">
<path fill="#fff" d="M160 224a64 64 0 0 0-64 64v512a64 64 0 0 0 64 64h704a64 64 0 0 0 64-64V288a64 64 0 0 0-64-64H748.416l-46.464-92.672A64 64 0 0 0 644.736 96H379.328a64 64 0 0 0-57.216 35.392L275.776 224H160zm352 435.2a115.2 115.2 0 1 0 0-230.4 115.2 115.2 0 0 0 0 230.4zm0 140.8a256 256 0 1 1 0-512 256 256 0 0 1 0 512z"/>
</g>
</svg>