<!DOCTYPE svg PUBLIC "-//W3C//DTD SVG 1.1//EN" "http://www.w3.org/Graphics/SVG/1.1/DTD/svg11.dtd">
<!-- Uploaded to: SVG Repo, www.svgrepo.com, Transformed by: SVG Repo Mixer Tools -->
<svg width="800px" height="800px" viewBox="-4.8 -4.8 57.60 57.60" xmlns="http://www.w3.org/2000/svg" fill="#021129" stroke="#021129" stroke-width="0.00048000000000000007" transform="matrix(1, 0, 0, 1, 0, 0)rotate(0)">
<g id="SVGRepo_bgCarrier" stroke-width="0"/>
<g id="SVGRepo_tracerCarrier" stroke-linecap="round" stroke-linejoin="round" stroke="#CCCCCC" stroke-width="0.576"/>
<g id="SVGRepo_iconCarrier"> <title>volume-mute</title> <g id="Layer_2" data-name="Layer 2"> <g id="invisible_box" data-name="invisible box"> <rect width="48" height="48" fill="none"/> </g> <g id="icons_Q2" data-name="icons Q2"> <path d="M26,11.9V36.1l-6.6-6L18.2,29H10V19h8.2l1.2-1.1,6.6-6M29,4a.9.9,0,0,0-.7.3L16.7,15H8a2,2,0,0,0-2,2V31a2,2,0,0,0,2,2h8.7L28.3,43.7a.9.9,0,0,0,.7.3,1,1,0,0,0,1-1V5a1,1,0,0,0-1-1Z"/> </g> </g> </g>
</svg>